<?xml version="1.0" encoding="UTF-8"?>
<!DOCTYPE svg PUBLIC "-//W3C//DTD SVG 1.1//EN" "http://www.w3.org/Graphics/SVG/1.1/DTD/svg11.dtd">
<svg xmlns="http://www.w3.org/2000/svg" version="1.1" width="1024px" height="1024px" style="shape-rendering:geometricPrecision; text-rendering:geometricPrecision; image-rendering:optimizeQuality; fill-rule:evenodd; clip-rule:evenodd" xmlns:xlink="http://www.w3.org/1999/xlink">
<g><path style="opacity:1" fill="#060606" d="M -0.5,-0.5 C 340.833,-0.5 682.167,-0.5 1023.5,-0.5C 1023.5,340.833 1023.5,682.167 1023.5,1023.5C 682.167,1023.5 340.833,1023.5 -0.5,1023.5C -0.5,682.167 -0.5,340.833 -0.5,-0.5 Z"/></g>
<g><path style="opacity:1" fill="#696969" d="M 524.5,199.5 C 518.642,199.178 512.975,199.511 507.5,200.5C 496.146,200.34 484.813,200.674 473.5,201.5C 473.918,200.778 474.584,200.278 475.5,200C 483.167,199.667 490.833,199.333 498.5,199C 507.343,198.176 516.01,198.343 524.5,199.5 Z"/></g>
<g><path style="opacity:1" fill="#f8f8f8" d="M 507.5,200.5 C 525.883,200.68 544.216,201.68 562.5,203.5C 577.616,206.265 592.616,209.599 607.5,213.5C 607.611,214.117 607.944,214.617 608.5,215C 612.447,216.484 616.447,217.65 620.5,218.5C 625.731,221.133 631.397,222.966 637.5,224C 638.167,225 638.833,226 639.5,227C 642.73,228.308 646.064,229.308 649.5,230C 666.179,240.005 682.846,250.005 699.5,260C 706.438,265.265 713.104,270.931 719.5,277C 720.5,277.333 721.5,277.667 722.5,278C 733.736,287.735 744.069,298.235 753.5,309.5C 759.504,317.333 765.671,325 772,332.5C 776.579,340.086 781.579,347.42 787,354.5C 787.29,356.952 787.956,359.285 789,361.5C 792.667,367.5 796.333,373.5 800,379.5C 805.347,391.238 810.347,403.238 815,415.5C 819.418,427.837 822.584,440.503 824.5,453.5C 825.176,461.886 826.51,469.886 828.5,477.5C 829.627,484.436 830.294,491.436 830.5,498.5C 831.78,511.504 831.78,524.504 830.5,537.5C 830.5,540.833 830.5,544.167 830.5,547.5C 827.136,558.018 825.47,569.018 825.5,580.5C 824.539,582.265 824.205,584.265 824.5,586.5C 822.131,593.288 820.131,600.288 818.5,607.5C 814.982,622.956 809.649,637.623 802.5,651.5C 800.435,654.925 798.769,658.592 797.5,662.5C 790.076,675.688 782.409,688.688 774.5,701.5C 773.504,701.414 772.671,701.748 772,702.5C 770.037,706.936 767.537,710.936 764.5,714.5C 757.542,723.46 750.209,732.127 742.5,740.5C 738.881,743.452 735.548,746.785 732.5,750.5C 720.259,761.58 707.592,772.08 694.5,782C 686.803,786.357 679.136,790.69 671.5,795C 669.043,798.058 666.043,800.392 662.5,802C 653.251,805.624 644.251,809.791 635.5,814.5C 628.115,816.684 620.782,819.184 613.5,822C 607.763,822.789 602.097,822.456 596.5,821C 594.132,818.093 592.465,814.926 591.5,811.5C 591.667,774.165 591.5,736.832 591,699.5C 590.617,698.944 590.117,698.611 589.5,698.5C 587.31,684.234 581.31,671.9 571.5,661.5C 583.372,658.399 595.372,655.899 607.5,654C 617.995,650.185 628.661,646.852 639.5,644C 643.014,641.074 647.014,638.907 651.5,637.5C 653.601,634.239 656.601,632.406 660.5,632C 667.988,626.277 674.988,620.11 681.5,613.5C 683.129,612.375 684.629,611.041 686,609.5C 688.751,605.598 691.251,601.598 693.5,597.5C 698.625,586.956 703.458,576.289 708,565.5C 710.08,560.382 710.913,555.049 710.5,549.5C 716.311,532.302 717.978,514.636 715.5,496.5C 715.609,491.14 715.276,485.807 714.5,480.5C 711.8,471.969 709.634,463.303 708,454.5C 704.344,450.553 702.01,445.886 701,440.5C 696.509,432.332 690.843,424.999 684,418.5C 683.297,415.518 683.797,412.851 685.5,410.5C 687.717,406.631 688.883,402.298 689,397.5C 689.826,385.659 689.659,373.993 688.5,362.5C 687.103,351.414 683.77,341.08 678.5,331.5C 673.35,330.349 668.016,330.183 662.5,331C 661.944,331.383 661.611,331.883 661.5,332.5C 651.293,334.175 641.46,336.841 632,340.5C 630.97,340.836 630.47,341.503 630.5,342.5C 623.747,346.113 616.747,349.279 609.5,352C 605.768,353.56 602.768,356.06 600.5,359.5C 596.867,360.672 593.367,362.005 590,363.5C 579.451,361.69 568.951,359.69 558.5,357.5C 546.577,355.509 534.577,354.509 522.5,354.5C 509.473,353.251 496.473,353.584 483.5,355.5C 471.543,356.16 459.877,357.827 448.5,360.5C 444.147,360.765 439.813,361.265 435.5,362C 434.944,362.383 434.611,362.883 434.5,363.5C 425.908,361.681 418.241,357.848 411.5,352C 402.028,346.886 392.361,342.219 382.5,338C 374.336,335.111 366.002,332.944 357.5,331.5C 353.019,330.352 348.352,330.185 343.5,331C 342.748,331.671 342.414,332.504 342.5,333.5C 341.741,338.613 339.908,343.28 337,347.5C 336.006,352.118 335.506,356.785 335.5,361.5C 334.883,361.611 334.383,361.944 334,362.5C 333.333,373.833 333.333,385.167 334,396.5C 334.383,397.056 334.883,397.389 335.5,397.5C 334.948,403.434 336.281,408.768 339.5,413.5C 339.203,417.326 337.37,420.326 334,422.5C 333.209,423.745 332.709,425.078 332.5,426.5C 330.807,427.475 329.307,428.808 328,430.5C 323.829,438.176 319.663,445.842 315.5,453.5C 314.449,456.757 313.782,460.09 313.5,463.5C 306.605,480.903 304.605,498.903 307.5,517.5C 307.502,522.519 307.835,527.519 308.5,532.5C 310.784,542.421 312.618,552.421 314,562.5C 315.641,566.419 317.474,570.253 319.5,574C 320.204,577.128 320.704,580.294 321,583.5C 325.266,587.691 328.266,592.691 330,598.5C 335.073,604.317 339.907,610.317 344.5,616.5C 355.889,628.072 368.889,637.239 383.5,644C 391.527,646.061 399.193,649.061 406.5,653C 416.144,653.955 425.477,655.788 434.5,658.5C 439.546,660.264 444.88,661.431 450.5,662C 447.8,663.857 446.134,666.357 445.5,669.5C 441.836,672.932 439.169,677.099 437.5,682C 435.548,689.071 434.048,696.238 433,703.5C 426.581,707.636 419.414,709.636 411.5,709.5C 402.489,710.71 393.489,710.71 384.5,709.5C 379.375,709.469 374.375,708.636 369.5,707C 366.671,704.173 363.337,702.173 359.5,701C 355,696.5 350.5,692 346,687.5C 338.041,670.203 325.541,657.037 308.5,648C 304.586,646.717 300.586,645.884 296.5,645.5C 290.296,644.189 283.962,644.189 277.5,645.5C 274.564,649.818 275.23,653.485 279.5,656.5C 288.018,662.812 296.351,669.479 304.5,676.5C 311.132,684.121 316.466,692.455 320.5,701.5C 320.804,704.522 321.304,707.522 322,710.5C 322.671,711.252 323.504,711.586 324.5,711.5C 331.311,726.81 342.311,737.977 357.5,745C 364.174,747 370.841,749 377.5,751C 380.146,751.497 382.813,751.664 385.5,751.5C 388.428,752.82 391.761,753.486 395.5,753.5C 399.239,753.486 402.572,752.82 405.5,751.5C 410.214,751.647 414.881,751.314 419.5,750.5C 423.5,750.167 427.5,749.833 431.5,749.5C 431.5,770.167 431.5,790.833 431.5,811.5C 430.918,817.746 427.584,821.413 421.5,822.5C 415.3,822.726 409.3,822.06 403.5,820.5C 366.939,807.228 333.606,788.062 303.5,763C 298.833,758.333 294.167,753.667 289.5,749C 288.5,748.667 287.5,748.333 286.5,748C 278.666,739.146 270.833,730.312 263,721.5C 256.971,713.478 250.971,705.478 245,697.5C 244.174,694.263 242.84,691.263 241,688.5C 228.61,671.079 219.277,652.079 213,631.5C 208.52,624.894 205.853,617.561 205,609.5C 204,607.5 203,605.5 202,603.5C 199.535,589.14 197.035,574.807 194.5,560.5C 193.889,547.668 193.222,534.834 192.5,522C 193.058,511.169 193.558,500.336 194,489.5C 195.862,479.242 197.029,468.909 197.5,458.5C 200.985,434.842 207.985,412.509 218.5,391.5C 219.458,391.047 220.292,390.381 221,389.5C 223.02,383.267 225.52,377.267 228.5,371.5C 228.75,366.999 230.584,363.333 234,360.5C 235.051,355.51 237.551,351.51 241.5,348.5C 244.046,344.136 247.212,340.136 251,336.5C 251.839,332.329 254.172,329.329 258,327.5C 258.608,325.846 259.108,324.179 259.5,322.5C 267.577,311.253 276.577,300.753 286.5,291C 294.117,285.385 301.117,279.052 307.5,272C 311.173,269.616 314.84,267.283 318.5,265C 323.709,259.142 330.042,254.808 337.5,252C 340.5,250.333 342.833,248 344.5,245C 349.609,243.078 354.276,240.411 358.5,237C 367.337,232.415 376.337,228.082 385.5,224C 392.506,222.641 399.173,220.474 405.5,217.5C 409.724,216.121 414.057,215.121 418.5,214.5C 420.03,214.36 421.03,213.693 421.5,212.5C 427.636,209.122 434.302,207.455 441.5,207.5C 445.61,207.299 449.276,206.299 452.5,204.5C 452.833,204.5 453.167,204.5 453.5,204.5C 460.396,204.141 467.062,203.141 473.5,201.5C 484.813,200.674 496.146,200.34 507.5,200.5 Z"/></g>
<g><path style="opacity:1" fill="#afafaf" d="M 507.5,200.5 C 512.975,199.511 518.642,199.178 524.5,199.5C 537.32,200.46 549.987,201.793 562.5,203.5C 544.216,201.68 525.883,200.68 507.5,200.5 Z"/></g>
<g><path style="opacity:1" fill="#5b5b5b" d="M 473.5,201.5 C 467.062,203.141 460.396,204.141 453.5,204.5C 459.886,202.532 466.552,201.532 473.5,201.5 Z"/></g>
<g><path style="opacity:1" fill="#818181" d="M 452.5,204.5 C 449.276,206.299 445.61,207.299 441.5,207.5C 442.152,206.275 443.319,205.608 445,205.5C 447.498,205.083 449.998,204.749 452.5,204.5 Z"/></g>
<g><path style="opacity:1" fill="#7f7f7f" d="M 607.5,213.5 C 612.453,213.843 616.787,215.51 620.5,218.5C 616.447,217.65 612.447,216.484 608.5,215C 607.944,214.617 607.611,214.117 607.5,213.5 Z"/></g>
<g><path style="opacity:1" fill="#868686" d="M 421.5,212.5 C 421.03,213.693 420.03,214.36 418.5,214.5C 414.057,215.121 409.724,216.121 405.5,217.5C 406.058,216.21 407.058,215.377 408.5,215C 412.803,213.95 417.137,213.116 421.5,212.5 Z"/></g>
<g><path style="opacity:1" fill="#38f900" d="M 167.5,228.5 C 173.5,228.5 179.5,228.5 185.5,228.5C 185.5,260.833 185.5,293.167 185.5,325.5C 193.833,325.5 202.167,325.5 210.5,325.5C 210.5,329.5 210.5,333.5 210.5,337.5C 188.167,337.5 165.833,337.5 143.5,337.5C 143.5,333.5 143.5,329.5 143.5,325.5C 153.167,325.5 162.833,325.5 172.5,325.5C 173.83,296.997 173.83,268.331 172.5,239.5C 171.893,239.624 171.56,239.957 171.5,240.5C 162.5,247.167 153.5,253.833 144.5,260.5C 143.513,255.695 143.179,250.695 143.5,245.5C 151.5,239.833 159.5,234.167 167.5,228.5 Z"/></g>
<g><path style="opacity:1" fill="#f60000" d="M 877.5,228.5 C 883.5,228.5 889.5,228.5 895.5,228.5C 895.168,261.004 895.502,293.338 896.5,325.5C 904.5,325.5 912.5,325.5 920.5,325.5C 920.5,329.5 920.5,333.5 920.5,337.5C 897.833,337.5 875.167,337.5 852.5,337.5C 852.5,333.5 852.5,329.5 852.5,325.5C 862.5,325.5 872.5,325.5 882.5,325.5C 882.833,297.159 882.5,268.825 881.5,240.5C 872.445,247.555 863.112,254.221 853.5,260.5C 852.338,255.869 852.172,251.202 853,246.5C 861.045,240.282 869.211,234.282 877.5,228.5 Z"/></g>
<g><path style="opacity:1" fill="#ad0000" d="M 877.5,228.5 C 883.645,227.51 889.978,227.177 896.5,227.5C 896.5,260.167 896.5,292.833 896.5,325.5C 895.502,293.338 895.168,261.004 895.5,228.5C 889.5,228.5 883.5,228.5 877.5,228.5 Z"/></g>
<g><path style="opacity:1" fill="#239e02" d="M 167.5,228.5 C 173.645,227.51 179.978,227.177 186.5,227.5C 186.5,259.833 186.5,292.167 186.5,324.5C 194.684,324.174 202.684,324.508 210.5,325.5C 202.167,325.5 193.833,325.5 185.5,325.5C 185.5,293.167 185.5,260.833 185.5,228.5C 179.5,228.5 173.5,228.5 167.5,228.5 Z"/></g>
<g><path style="opacity:1" fill="#207a0a" d="M 143.5,245.5 C 143.179,250.695 143.513,255.695 144.5,260.5C 144.44,261.043 144.107,261.376 143.5,261.5C 142.185,256.014 142.185,250.68 143.5,245.5 Z"/></g>
<g><path style="opacity:1" fill="#2bcd00" d="M 171.5,240.5 C 171.56,239.957 171.893,239.624 172.5,239.5C 173.83,268.331 173.83,296.997 172.5,325.5C 172.5,325.167 172.5,324.833 172.5,324.5C 172.831,296.328 172.498,268.328 171.5,240.5 Z"/></g>
<g><path style="opacity:1" fill="#37f600" d="M 105.5,282.5 C 114.833,282.5 124.167,282.5 133.5,282.5C 133.5,286.5 133.5,290.5 133.5,294.5C 124.167,294.5 114.833,294.5 105.5,294.5C 105.5,304.167 105.5,313.833 105.5,323.5C 100.833,323.5 96.1667,323.5 91.5,323.5C 91.5,313.833 91.5,304.167 91.5,294.5C 82.1667,294.5 72.8333,294.5 63.5,294.5C 63.5,290.5 63.5,286.5 63.5,282.5C 72.8333,282.5 82.1667,282.5 91.5,282.5C 92.4938,273.014 92.8271,263.348 92.5,253.5C 96.5,253.5 100.5,253.5 104.5,253.5C 104.173,263.348 104.506,273.014 105.5,282.5 Z"/></g>
<g><path style="opacity:1" fill="#249104" d="M 105.5,282.5 C 104.506,273.014 104.173,263.348 104.5,253.5C 100.5,253.5 96.5,253.5 92.5,253.5C 92.8271,263.348 92.4938,273.014 91.5,282.5C 91.5,272.5 91.5,262.5 91.5,252.5C 96.1667,252.5 100.833,252.5 105.5,252.5C 105.5,262.5 105.5,272.5 105.5,282.5 Z"/></g>
<g><path style="opacity:1" fill="#f90000" d="M 784.5,281.5 C 800.5,281.5 816.5,281.5 832.5,281.5C 832.5,285.5 832.5,289.5 832.5,293.5C 816.5,293.5 800.5,293.5 784.5,293.5C 784.5,289.5 784.5,285.5 784.5,281.5 Z"/></g>
<g><path style="opacity:1" fill="#1a5a05" d="M 172.5,324.5 C 172.5,324.833 172.5,325.167 172.5,325.5C 162.833,325.5 153.167,325.5 143.5,325.5C 143.5,329.5 143.5,333.5 143.5,337.5C 142.515,333.366 142.182,329.032 142.5,324.5C 152.5,324.5 162.5,324.5 172.5,324.5 Z"/></g>
<g><path style="opacity:1" fill="#7a7a7a" d="M 357.5,331.5 C 353.154,331.334 348.821,331.501 344.5,332C 343.956,332.717 343.289,333.217 342.5,333.5C 342.414,332.504 342.748,331.671 343.5,331C 348.352,330.185 353.019,330.352 357.5,331.5 Z"/></g>
<g><path style="opacity:1" fill="#808080" d="M 678.5,331.5 C 674.833,331.5 671.167,331.5 667.5,331.5C 665.435,331.517 663.435,331.85 661.5,332.5C 661.611,331.883 661.944,331.383 662.5,331C 668.016,330.183 673.35,330.349 678.5,331.5 Z"/></g>
<g><path style="opacity:1" fill="#383838" d="M 667.5,331.5 C 667.611,332.117 667.944,332.617 668.5,333C 659.758,335.404 650.758,337.07 641.5,338C 640.833,338.667 640.167,339.333 639.5,340C 636.343,340.396 633.343,341.229 630.5,342.5C 630.47,341.503 630.97,340.836 632,340.5C 641.46,336.841 651.293,334.175 661.5,332.5C 663.435,331.85 665.435,331.517 667.5,331.5 Z"/></g>
<g><path style="opacity:1" fill="#9e9e9e" d="M 259.5,322.5 C 259.108,324.179 258.608,325.846 258,327.5C 254.172,329.329 251.839,332.329 251,336.5C 247.212,340.136 244.046,344.136 241.5,348.5C 242.437,345.731 243.604,343.064 245,340.5C 249.136,333.867 253.97,327.867 259.5,322.5 Z"/></g>
<g><path style="opacity:1" fill="#535353" d="M 522.5,354.5 C 509.494,354.631 496.494,354.964 483.5,355.5C 496.473,353.584 509.473,353.251 522.5,354.5 Z"/></g>
<g><path style="opacity:1" fill="#909090" d="M 448.5,360.5 C 444.05,361.983 439.383,362.983 434.5,363.5C 434.611,362.883 434.944,362.383 435.5,362C 439.813,361.265 444.147,360.765 448.5,360.5 Z"/></g>
<g><path style="opacity:1" fill="#7d7d7d" d="M 335.5,361.5 C 334.233,373.503 334.233,385.503 335.5,397.5C 334.883,397.389 334.383,397.056 334,396.5C 333.333,385.167 333.333,373.833 334,362.5C 334.383,361.944 334.883,361.611 335.5,361.5 Z"/></g>
<g><path style="opacity:1" fill="#9c9c9c" d="M 228.5,371.5 C 225.52,377.267 223.02,383.267 221,389.5C 220.292,390.381 219.458,391.047 218.5,391.5C 220.099,387.707 221.265,383.707 222,379.5C 224.817,377.201 226.983,374.535 228.5,371.5 Z"/></g>
<g><path style="opacity:1" fill="#979797" d="M 688.5,362.5 C 689.659,373.993 689.826,385.659 689,397.5C 688.883,402.298 687.717,406.631 685.5,410.5C 685.544,405.653 686.377,400.987 688,396.5C 688.5,385.172 688.667,373.838 688.5,362.5 Z"/></g>
<g><path style="opacity:1" fill="#5b5b5b" d="M 339.5,413.5 C 340.613,414.946 340.78,416.613 340,418.5C 337.267,421.062 334.767,423.729 332.5,426.5C 332.709,425.078 333.209,423.745 334,422.5C 337.37,420.326 339.203,417.326 339.5,413.5 Z"/></g>
<g><path style="opacity:1" fill="#a2a2a2" d="M 824.5,453.5 C 825.117,453.611 825.617,453.944 826,454.5C 826.966,462.16 827.799,469.827 828.5,477.5C 826.51,469.886 825.176,461.886 824.5,453.5 Z"/></g>
<g><path style="opacity:1" fill="#6e6e6e" d="M 313.5,463.5 C 311.865,471.184 310.031,478.85 308,486.5C 307.5,496.828 307.334,507.161 307.5,517.5C 304.605,498.903 306.605,480.903 313.5,463.5 Z"/></g>
<g><path style="opacity:1" fill="#727272" d="M 715.5,496.5 C 717.978,514.636 716.311,532.302 710.5,549.5C 712.107,541.525 713.607,533.525 715,525.5C 715.5,515.839 715.666,506.172 715.5,496.5 Z"/></g>
<g><path style="opacity:1" fill="#b2b2b2" d="M 197.5,458.5 C 197.029,468.909 195.862,479.242 194,489.5C 193.558,500.336 193.058,511.169 192.5,522C 193.222,534.834 193.889,547.668 194.5,560.5C 191.049,535.719 190.549,510.719 193,485.5C 194.253,476.316 195.753,467.316 197.5,458.5 Z"/></g>
<g><path style="opacity:1" fill="#444444" d="M 830.5,498.5 C 831.117,498.611 831.617,498.944 832,499.5C 832.167,505.833 832.333,512.167 832.5,518.5C 832.496,525.204 831.83,531.537 830.5,537.5C 831.78,524.504 831.78,511.504 830.5,498.5 Z"/></g>
<g><path style="opacity:1" fill="#909090" d="M 830.5,547.5 C 829.57,558.738 827.903,569.738 825.5,580.5C 825.47,569.018 827.136,558.018 830.5,547.5 Z"/></g>
<g><path style="opacity:1" fill="#6d6d6d" d="M 824.5,586.5 C 823.92,590.142 823.42,593.809 823,597.5C 821.562,600.988 820.062,604.321 818.5,607.5C 820.131,600.288 822.131,593.288 824.5,586.5 Z"/></g>
<g><path style="opacity:1" fill="#909090" d="M 693.5,597.5 C 691.251,601.598 688.751,605.598 686,609.5C 684.629,611.041 683.129,612.375 681.5,613.5C 684.529,607.443 688.529,602.109 693.5,597.5 Z"/></g>
<g><path style="opacity:1" fill="#464646" d="M 296.5,645.5 C 290.69,645.122 285.023,645.789 279.5,647.5C 278.511,648.468 277.844,649.635 277.5,651C 277.954,652.939 278.621,654.772 279.5,656.5C 275.23,653.485 274.564,649.818 277.5,645.5C 283.962,644.189 290.296,644.189 296.5,645.5 Z"/></g>
<g><path style="opacity:1" fill="#cbcbcb" d="M 305.5,653.5 C 310.186,652.984 312.519,654.984 312.5,659.5C 310.076,659.808 307.743,659.474 305.5,658.5C 304.185,656.801 304.185,655.135 305.5,653.5 Z"/></g>
<g><path style="opacity:1" fill="#848484" d="M 802.5,651.5 C 802.205,655.794 800.538,659.461 797.5,662.5C 798.769,658.592 800.435,654.925 802.5,651.5 Z"/></g>
<g><path style="opacity:1" fill="#656565" d="M 434.5,658.5 C 440.189,658.532 445.855,658.866 451.5,659.5C 450.777,663.565 448.777,666.899 445.5,669.5C 446.134,666.357 447.8,663.857 450.5,662C 444.88,661.431 439.546,660.264 434.5,658.5 Z"/></g>
<g><path style="opacity:1" fill="#dbdbdb" d="M 317.5,665.5 C 324.181,664.31 327.181,666.977 326.5,673.5C 320.649,673.98 317.649,671.314 317.5,665.5 Z"/></g>
<g><path style="opacity:1" fill="#e0e0e0" d="M 330.5,680.5 C 335.331,680.993 338.331,683.659 339.5,688.5C 339.392,689.442 339.059,690.275 338.5,691C 336.833,691.667 335.167,691.667 333.5,691C 329.542,688.393 328.542,684.893 330.5,680.5 Z"/></g>
<g><path style="opacity:1" fill="#eaeaea" d="M 352.5,700.5 C 355.149,702.559 355.982,705.225 355,708.5C 352.88,709.605 350.713,709.605 348.5,708.5C 345.668,706.593 344.834,703.927 346,700.5C 348.163,699.232 350.33,699.232 352.5,700.5 Z"/></g>
<g><path style="opacity:1" fill="#808080" d="M 774.5,701.5 C 772.664,707 769.331,711.334 764.5,714.5C 767.537,710.936 770.037,706.936 772,702.5C 772.671,701.748 773.504,701.414 774.5,701.5 Z"/></g>
<g><path style="opacity:1" fill="#8e8e8e" d="M 320.5,701.5 C 322.126,704.625 323.46,707.958 324.5,711.5C 323.504,711.586 322.671,711.252 322,710.5C 321.304,707.522 320.804,704.522 320.5,701.5 Z"/></g>
<g><path style="opacity:1" fill="#606060" d="M 352.5,700.5 C 354.017,700.511 355.184,701.177 356,702.5C 356.497,705.146 356.664,707.813 356.5,710.5C 354.143,710.663 351.81,710.497 349.5,710C 348.944,709.617 348.611,709.117 348.5,708.5C 350.713,709.605 352.88,709.605 355,708.5C 355.982,705.225 355.149,702.559 352.5,700.5 Z"/></g>
<g><path style="opacity:1" fill="#a9a9a9" d="M 384.5,709.5 C 393.489,710.71 402.489,710.71 411.5,709.5C 406.755,710.999 401.755,711.666 396.5,711.5C 393.167,711.333 389.833,711.167 386.5,711C 385.584,710.722 384.918,710.222 384.5,709.5 Z"/></g>
<g><path style="opacity:1" fill="#e0e0e0" d="M 368.5,712.5 C 374.838,712.341 378.005,715.341 378,721.5C 372.403,723.653 368.569,721.987 366.5,716.5C 366.752,714.927 367.418,713.594 368.5,712.5 Z"/></g>
<g><path style="opacity:1" fill="#dddddd" d="M 420.5,714.5 C 423.545,714.508 426.545,714.841 429.5,715.5C 430.346,720.986 428.012,723.653 422.5,723.5C 417.134,723.762 415.467,721.429 417.5,716.5C 418.602,715.824 419.602,715.158 420.5,714.5 Z"/></g>
<g><path style="opacity:1" fill="#ededed" d="M 404.5,718.5 C 404.5,720.5 404.5,722.5 404.5,724.5C 400.756,725.855 397.089,725.688 393.5,724C 392.464,722.224 392.464,720.391 393.5,718.5C 397.033,717.285 400.699,717.285 404.5,718.5 Z"/></g>
<g><path style="opacity:1" fill="#777777" d="M 393.5,718.5 C 392.464,720.391 392.464,722.224 393.5,724C 397.089,725.688 400.756,725.855 404.5,724.5C 404.5,722.5 404.5,720.5 404.5,718.5C 405.468,720.607 405.802,722.941 405.5,725.5C 401.081,726.931 396.748,726.764 392.5,725C 390.98,722.448 391.313,720.282 393.5,718.5 Z"/></g>
<g><path style="opacity:1" fill="#767676" d="M 589.5,698.5 C 590.117,698.611 590.617,698.944 591,699.5C 591.5,736.832 591.667,774.165 591.5,811.5C 590.803,773.984 590.136,736.317 589.5,698.5 Z"/></g>
<g><path style="opacity:1" fill="#5d5d5d" d="M 742.5,740.5 C 740.145,744.855 736.812,748.188 732.5,750.5C 735.548,746.785 738.881,743.452 742.5,740.5 Z"/></g>
<g><path style="opacity:1" fill="#a9a9a9" d="M 385.5,751.5 C 392.167,751.5 398.833,751.5 405.5,751.5C 402.572,752.82 399.239,753.486 395.5,753.5C 391.761,753.486 388.428,752.82 385.5,751.5 Z"/></g>
<g><path style="opacity:1" fill="#777777" d="M 431.5,811.5 C 431.5,790.833 431.5,770.167 431.5,749.5C 427.5,749.833 423.5,750.167 419.5,750.5C 423.545,748.823 427.878,748.156 432.5,748.5C 432.831,769.673 432.497,790.673 431.5,811.5 Z"/></g>
<g><path style="opacity:1" fill="#868686" d="M 403.5,820.5 C 409.3,822.06 415.3,822.726 421.5,822.5C 415.24,824.223 409.24,823.557 403.5,820.5 Z"/></g>
</svg>
